<svg width="120" height="120" viewBox="0 0 120 120" fill="none" xmlns="http://www.w3.org/2000/svg">
  <!-- Fundo circular verde -->
  <circle cx="60" cy="60" r="55" fill="#2CB20B" stroke="#25A009" stroke-width="2"/>
  
  <!-- Folha principal -->
  <path d="M35 60 Q45 35 60 45 Q75 35 85 60 Q75 85 60 75 Q45 85 35 60 Z" fill="#ffffff" opacity="0.9"/>
  
  <!-- Nervura da folha -->
  <path d="M45 55 Q52 50 60 55 Q68 50 75 55" stroke="#2CB20B" stroke-width="2" fill="none"/>
  <path d="M48 65 Q54 62 60 65 Q66 62 72 65" stroke="#2CB20B" stroke-width="1.5" fill="none"/>
  
  <!-- Pequenas folhas decorativas -->
  <ellipse cx="40" cy="45" rx="8" ry="12" fill="#ffffff" opacity="0.7" transform="rotate(-30 40 45)"/>
  <ellipse cx="80" cy="75" rx="6" ry="10" fill="#ffffff" opacity="0.7" transform="rotate(30 80 75)"/>
  
  <!-- Texto "N" estilizado no centro -->
  <text x="60" y="70" font-family="Arial, sans-serif" font-size="24" font-weight="bold" fill="#2CB20B" text-anchor="middle">N</text>
  
  <!-- Borda externa -->
  <circle cx="60" cy="60" r="58" fill="none" stroke="#25A009" stroke-width="1" opacity="0.5"/>
</svg>